{"title":"The.Banshee.Chapter.2014.WEB-DL.1080p-Zenstar75.mkv","uid":9938298,"size":4593523888,"categoryP":"video","categoryS":"hd___movies","magnet":"?xt=urn:btih:ed0597b02b27339ec69d29425400b871098cfe4e&amp;dn=The.Banshee.Chapter.2014.WEB-DL.1080p-Zenstar75.mkv&amp;tr=udp%3A%2F%2Ftracker.openbittorrent.com%3A80&amp;tr=udp%3A%2F%2Fopen.demonii.com%3A1337&amp;tr=udp%3A%2F%2Ftracker.coppersurfer.tk%3A6969&amp;tr=udp%3A%2F%2Fexodus.desync.com%3A6969","seeders":0,"leechers":0,"uploader":"zenstar75","files":-1,"time":1397187428,"description":"The.Banshee.Chapter.2014.WEB-DL.1080p-Zenstar75\n\n\n\nJournalist Anne Roland explores the disturbing links behind her friend's sudden disappearance, an ominous government research chemical, and a disturbing radio broadcast of unknown origin.\n\n\n &lt;a href=&quot;\nhttp://www.imdb.com/title/tt2011276/?ref_=fn_al_tt_1&quot; rel=&quot;nofollow&quot; target=&quot;_NEW&quot;&gt;\nhttp://www.imdb.com/title/tt2011276/?ref_=fn_al_tt_1&lt;/a&gt;\n\n\n\n\nFormat                                   : Matroska\nFormat version                           : Version 4 / Version 2\nFile size                                : 4.28 GiB\nDuration                                 : 1h 27mn\nOverall bit rate                         : 7 028 Kbps\nEncoded date                             : UTC 2014-04-11 00:35:42\nWriting application                      : mkvmerge v6.8.0 ('Theme for Great Cities') 32bit built on Mar  2 2014 21:27:07\nWriting library                          : libebml v1.3.0 + libmatroska v1.4.1\nAttachment                               : Yes\n\n\nVideo\nID                                       : 1\nFormat                                   : AVC\nFormat/Info                              : Advanced Video Codec\nFormat profile                           : &lt;a class=&quot;__cf_email__&quot; href=&quot;/cdn-cgi/l/email-protection&quot; data-cfemail=&quot;b2fadbd5daf2fe879c83&quot;&gt;[email&amp;#160;protected]&lt;/a&gt;&lt;script cf-hash='f9e31' type=&quot;text/javascript&quot;&gt;\n/* &lt;![CDATA[ */!function(){try{var t=&quot;currentScript&quot;in document?document.currentScript:function(){for(var t=document.getElementsByTagName(&quot;script&quot;),e=t.length;e--;)if(t[e].getAttribute(&quot;cf-hash&quot;))return t[e]}();if(t&amp;&amp;t.previousSibling){var e,r,n,i,c=t.previousSibling,a=c.getAttribute(&quot;data-cfemail&quot;);if(a){for(e=&quot;&quot;,r=parseInt(a.substr(0,2),16),n=2;a.length-n;n+=2)i=parseInt(a.substr(n,2),16)^r,e+=String.fromCharCode(i);e=document.createTextNode(e),c.parentNode.replaceChild(e,c)}}}catch(u){}}();/* ]]&gt; */&lt;/script&gt;\nFormat settings, CABAC                   : Yes\nFormat settings, ReFrames                : 3 frames\nCodec ID                                 : V_MPEG4/ISO/AVC\nDuration                                 : 1h 27mn\nBit rate mode                            : Constant\nBit rate                                 : 6 505 Kbps\nNominal bit rate                         : 7 000 Kbps\nWidth                                    : 1 920 pixels\nHeight                                   : 1 080 pixels\nDisplay aspect ratio                     : 16:9\nFrame rate mode                          : Constant\nFrame rate                               : 25.000 fps\nStandard                                 : PAL\nColor space                              : YUV\nChroma subsampling                       : 4:2:0\nBit depth                                : 8 bits\nScan type                                : Progressive\nBits/(Pixel*Frame)                       : 0.125\nStream size                              : 3.96 GiB (93%)\nTitle                                    : The.Banshee.Chapter.2014.WEB-DL.1080p-Zenstar75\nLanguage                                 : English\nDefault                                  : Yes\nForced                                   : No\n\n\nAudio\nID                                       : 2\nFormat                                   : AC-3\nFormat/Info                              : Audio Coding 3\nMode extension                           : CM (complete main)\nFormat settings, Endianness              : Big\nCodec ID                                 : A_AC3\nDuration                                 : 1h 27mn\nBit rate mode                            : Constant\nBit rate                                 : 384 Kbps\nChannel(s)                               : 6 channels\nChannel positions                        : Front: L C R, Side: L R, LFE\nSampling rate                            : 48.0 KHz\nBit depth                                : 16 bits\nCompression mode                         : Lossy\nStream size                              : 239 MiB (5%)\nTitle                                    : Original\nLanguage                                 : English\nDefault                                  : Yes\nForced                                   : No\n\nText\nID                                       : 3\nFormat                                   : UTF-8\nCodec ID                                 : S_TEXT/UTF8\nCodec ID/Info                            : UTF-8 Plain Text\nTitle                                    : SDH\nLanguage                                 : English\nDefault                                  : No\nForced                                   : No\n\n\n\n\n\n\n\n\n\n\n\nLook forward to more quality 1080p BluRay releases. Enjoy.\n\n\n\n\n\n","torrent":{"xt":"urn:btih:ed0597b02b27339ec69d29425400b871098cfe4e","amp;dn":"The.Banshee.Chapter.2014.WEB-DL.1080p-Zenstar75.mkv","amp;tr":["udp%3A%2F%2Ftracker.openbittorrent.com%3A80","udp%3A%2F%2Fopen.demonii.com%3A1337","udp%3A%2F%2Ftracker.coppersurfer.tk%3A6969","udp%3A%2F%2Fexodus.desync.com%3A6969"],"infoHash":"ed0597b02b27339ec69d29425400b871098cfe4e","infoHashBuffer":{"type":"Buffer","data":[237,5,151,176,43,39,51,158,198,157,41,66,84,0,184,113,9,140,254,78]},"announce":[],"urlList":[]}}